<svg width="65" height="65" viewBox="0 0 65 65" fill="none" xmlns="http://www.w3.org/2000/svg">
<path d="M56.875 54.8438C56.875 55.3825 56.661 55.8992 56.28 56.2801C55.8991 56.661 55.3825 56.875 54.8437 56.875H18.2812C17.7425 56.875 17.2259 56.661 16.8449 56.2801C16.464 55.8992 16.25 55.3825 16.25 54.8438C16.25 54.305 16.464 53.7884 16.8449 53.4075C17.2259 53.0265 17.7425 52.8125 18.2812 52.8125H54.8437C55.3825 52.8125 55.8991 53.0265 56.28 53.4075C56.661 53.7884 56.875 54.305 56.875 54.8438ZM62.9687 34.5313V40.625C62.9687 41.1637 62.7547 41.6804 62.3738 42.0613C61.9929 42.4423 61.4762 42.6563 60.9375 42.6563H16.1992C14.0138 42.6638 11.8848 41.9627 10.1315 40.658C8.37817 39.3534 7.09508 37.5155 6.4746 35.4199L2.89452 23.5117C2.71672 22.9023 2.6815 22.2602 2.79157 21.635C2.90164 21.0098 3.15405 20.4183 3.52928 19.9063C3.91299 19.4012 4.4083 18.9917 4.9765 18.7098C5.54469 18.4279 6.17039 18.2813 6.80467 18.2813H11.1719C11.4684 18.2819 11.7611 18.3482 12.0289 18.4756C12.2968 18.6029 12.533 18.788 12.7207 19.0176L17.1894 24.375H21.5566L19.2715 17.5449C19.0658 16.9332 19.0087 16.2813 19.1051 15.6432C19.2015 15.0051 19.4486 14.3991 19.8258 13.8755C20.203 13.3518 20.6996 12.9256 21.2743 12.632C21.8491 12.3385 22.4855 12.1861 23.1308 12.1875H27.4219C27.7039 12.186 27.9832 12.2441 28.2413 12.3578C28.4994 12.4716 28.7307 12.6385 28.9199 12.8477L39.4824 24.375H52.8125C55.5061 24.375 58.0894 25.4451 59.994 27.3497C61.8987 29.2544 62.9687 31.8377 62.9687 34.5313ZM58.9062 34.5313C58.8996 32.9172 58.2554 31.3711 57.114 30.2297C55.9727 29.0884 54.4266 28.4442 52.8125 28.4375H38.5937C38.3117 28.439 38.0324 28.381 37.7743 28.2672C37.5162 28.1535 37.2849 27.9866 37.0957 27.7774L26.5332 16.25H23.1308L26.3047 25.7715C26.4041 26.0769 26.4306 26.4013 26.3821 26.7187C26.3336 27.0362 26.2114 27.3379 26.0254 27.5996C25.8378 27.8616 25.5899 28.0745 25.3026 28.2203C25.0153 28.3662 24.6971 28.4407 24.375 28.4375H16.25C15.9534 28.4369 15.6607 28.3706 15.3929 28.2432C15.1251 28.1159 14.8888 27.9308 14.7012 27.7012L10.2324 22.3438H6.77928L10.3594 34.252C10.7326 35.5097 11.5034 36.6126 12.5563 37.3953C13.6091 38.1781 14.8873 38.5986 16.1992 38.5938H58.9062V34.5313Z" fill="white"/>
</svg>
