<svg width="70" height="70" viewBox="0 0 70 70" fill="none" xmlns="http://www.w3.org/2000/svg">
<path d="M22.6042 37.9167C23.5711 37.9167 24.4984 37.5326 25.1822 36.8488C25.8659 36.1651 26.25 35.2378 26.25 34.2708C26.25 33.3039 25.8659 32.3766 25.1822 31.6928C24.4984 31.0091 23.5711 30.625 22.6042 30.625C21.6372 30.625 20.7099 31.0091 20.0262 31.6928C19.3424 32.3766 18.9583 33.3039 18.9583 34.2708C18.9583 35.2378 19.3424 36.1651 20.0262 36.8488C20.7099 37.5326 21.6372 37.9167 22.6042 37.9167ZM38.6458 34.2708C38.6458 35.2378 38.2617 36.1651 37.578 36.8488C36.8943 37.5326 35.9669 37.9167 35 37.9167C34.0331 37.9167 33.1057 37.5326 32.422 36.8488C31.7383 36.1651 31.3542 35.2378 31.3542 34.2708C31.3542 33.3039 31.7383 32.3766 32.422 31.6928C33.1057 31.0091 34.0331 30.625 35 30.625C35.9669 30.625 36.8943 31.0091 37.578 31.6928C38.2617 32.3766 38.6458 33.3039 38.6458 34.2708ZM47.3958 37.9167C48.3628 37.9167 49.2901 37.5326 49.9738 36.8488C50.6576 36.1651 51.0417 35.2378 51.0417 34.2708C51.0417 33.3039 50.6576 32.3766 49.9738 31.6928C49.2901 31.0091 48.3628 30.625 47.3958 30.625C46.4289 30.625 45.5016 31.0091 44.8178 31.6928C44.1341 32.3766 43.75 33.3039 43.75 34.2708C43.75 35.2378 44.1341 36.1651 44.8178 36.8488C45.5016 37.5326 46.4289 37.9167 47.3958 37.9167ZM26.25 45.9375C26.25 46.9044 25.8659 47.8318 25.1822 48.5155C24.4984 49.1992 23.5711 49.5833 22.6042 49.5833C21.6372 49.5833 20.7099 49.1992 20.0262 48.5155C19.3424 47.8318 18.9583 46.9044 18.9583 45.9375C18.9583 44.9706 19.3424 44.0432 20.0262 43.3595C20.7099 42.6758 21.6372 42.2917 22.6042 42.2917C23.5711 42.2917 24.4984 42.6758 25.1822 43.3595C25.8659 44.0432 26.25 44.9706 26.25 45.9375ZM35 49.5833C35.9669 49.5833 36.8943 49.1992 37.578 48.5155C38.2617 47.8318 38.6458 46.9044 38.6458 45.9375C38.6458 44.9706 38.2617 44.0432 37.578 43.3595C36.8943 42.6758 35.9669 42.2917 35 42.2917C34.0331 42.2917 33.1057 42.6758 32.422 43.3595C31.7383 44.0432 31.3542 44.9706 31.3542 45.9375C31.3542 46.9044 31.7383 47.8318 32.422 48.5155C33.1057 49.1992 34.0331 49.5833 35 49.5833ZM8.75 17.8646C8.75 15.4472 9.71028 13.1289 11.4196 11.4196C13.1289 9.71028 15.4472 8.75 17.8646 8.75H52.1354C54.5528 8.75 56.8711 9.71028 58.5804 11.4196C60.2897 13.1289 61.25 15.4472 61.25 17.8646V52.1354C61.25 54.5528 60.2897 56.8711 58.5804 58.5804C56.8711 60.2897 54.5528 61.25 52.1354 61.25H17.8646C15.4472 61.25 13.1289 60.2897 11.4196 58.5804C9.71028 56.8711 8.75 54.5528 8.75 52.1354V17.8646ZM17.8646 12.3958C16.4142 12.3958 15.0232 12.972 13.9976 13.9976C12.972 15.0232 12.3958 16.4142 12.3958 17.8646V20.4167H57.6042V17.8646C57.6042 16.4142 57.028 15.0232 56.0024 13.9976C54.9768 12.972 53.5858 12.3958 52.1354 12.3958H17.8646ZM12.3958 52.1354C12.3958 53.5858 12.972 54.9768 13.9976 56.0024C15.0232 57.028 16.4142 57.6042 17.8646 57.6042H52.1354C53.5858 57.6042 54.9768 57.028 56.0024 56.0024C57.028 54.9768 57.6042 53.5858 57.6042 52.1354V24.0625H12.3958V52.1354Z" fill="white"/>
</svg>
